{
  "accessors": [
    {
      "bufferView": 2,
      "componentType": 5126,
      "count": 169,
      "max": [
        0.9227610230445862,
        0.8977969884872437,
        3.053781032562256
      ],
      "min": [
        -0.9005330204963684,
        -0.8977969884872437,
        0.24016200006008148
      ],
      "type": "VEC3"
    },
    {
      "bufferView": 2,
      "byteOffset": 2028,
      "componentType": 5126,
      "count": 169,
      "max": [
        0.9999613761901855,
        0.9847697615623474,
        1.0
      ],
      "min": [
        -0.9999613761901855,
        -0.9847696423530579,
        -0.9999998807907104
      ],
      "type": "VEC3"
    },
    {
      "bufferView": 3,
      "componentType": 5126,
      "count": 169,
      "max": [
        0.9933002591133118,
        0.9982776641845703,
        0.04678111523389816,
        1.0
      ],
      "min": [
        -0.9933002591133118,
        -0.9982776045799255,
        -0.9996495246887207,
        1.0
      ],
      "type": "VEC4"
    },
    {
      "bufferView": 1,
      "componentType": 5126,
      "count": 169,
      "max": [
        0.9900000095367432,
        0.6678329706192017
      ],
      "min": [
        0.009999999776482582,
        0.009999999776482582
      ],
      "type": "VEC2"
    },
    {
      "bufferView": 0,
      "componentType": 5125,
      "count": 528,
      "type": "SCALAR"
    },
    {
      "bufferView": 2,
      "byteOffset": 4056,
      "componentType": 5126,
      "count": 1007,
      "max": [
        1.1845990419387817,
        1.6867170333862305,
        2.3941969871520996
      ],
      "min": [
        -1.181656002998352,
        -1.1759419441223145,
        -0.19337700307369232
      ],
      "type": "VEC3"
    },
    {
      "bufferView": 2,
      "byteOffset": 16140,
      "componentType": 5126,
      "count": 1007,
      "max": [
        0.9975368976593018,
        0.999798595905304,
        0.9964169859886169
      ],
      "min": [
        -0.9966055154800415,
        -0.9997879862785339,
        -0.9993821382522583
      ],
      "type": "VEC3"
    },
    {
      "bufferView": 3,
      "byteOffset": 2704,
      "componentType": 5126,
      "count": 1007,
      "max": [
        0.9998655319213867,
        0.9970168471336365,
        0.9999987483024597,
        1.0
      ],
      "min": [
        -0.9990712404251099,
        -0.999660074710846,
        -0.9999993443489075,
        1.0
      ],
      "type": "VEC4"
    },
    {
      "bufferView": 1,
      "byteOffset": 1352,
      "componentType": 5126,
      "count": 1007,
      "max": [
        0.9924579858779907,
        0.9900000095367432
      ],
      "min": [
        0.009999999776482582,
        0.009999999776482582
      ],
      "type": "VEC2"
    },
    {
      "bufferView": 0,
      "byteOffset": 2112,
      "componentType": 5125,
      "count": 3252,
      "type": "SCALAR"
    }
  ],
  "asset": {
    "extras": {
      "author": "Milionna (https://sketchfab.com/milionna)",
      "license": "CC-BY-4.0 (http://creativecommons.org/licenses/by/4.0/)",
      "source": "https://sketchfab.com/3d-models/cup-with-holder-2862e133001c4443ab727ab70899e6f4",
      "title": "Cup with holder"
    },
    "generator": "Sketchfab-12.65.0",
    "version": "2.0"
  },
  "bufferViews": [
    {
      "buffer": 0,
      "byteLength": 15120,
      "name": "floatBufferViews",
      "target": 34963
    },
    {
      "buffer": 0,
      "byteLength": 9408,
      "byteOffset": 15120,
      "byteStride": 8,
      "name": "floatBufferViews",
      "target": 34962
    },
    {
      "buffer": 0,
      "byteLength": 28224,
      "byteOffset": 24528,
      "byteStride": 12,
      "name": "floatBufferViews",
      "target": 34962
    },
    {
      "buffer": 0,
      "byteLength": 18816,
      "byteOffset": 52752,
      "byteStride": 16,
      "name": "floatBufferViews",
      "target": 34962
    }
  ],
  "buffers": [
    {
      "byteLength": 71568,
      "uri": "scene.bin"
    }
  ],
  "extensionsUsed": [
    "KHR_materials_transmission"
  ],
  "images": [
    {
      "uri": "textures/lambert4SG_baseColor.png"
    },
    {
      "uri": "textures/lambert4SG_metallicRoughness.png"
    },
    {
      "uri": "textures/lambert4SG_normal.png"
    },
    {
      "uri": "textures/lambert4SG_transmission.png"
    },
    {
      "uri": "textures/lambert5SG_baseColor.png"
    },
    {
      "uri": "textures/lambert5SG_metallicRoughness.png"
    },
    {
      "uri": "textures/lambert5SG_normal.png"
    }
  ],
  "materials": [
    {
      "alphaMode": "BLEND",
      "doubleSided": true,
      "extensions": {
        "KHR_materials_transmission": {
          "transmissionFactor": 1.0,
          "transmissionTexture": {
            "index": 3
          }
        }
      },
      "name": "lambert4SG",
      "normalTexture": {
        "index": 2
      },
      "pbrMetallicRoughness": {
        "baseColorTexture": {
          "index": 0
        },
        "metallicRoughnessTexture": {
          "index": 1
        }
      }
    },
    {
      "doubleSided": true,
      "name": "lambert5SG",
      "normalTexture": {
        "index": 6
      },
      "pbrMetallicRoughness": {
        "baseColorTexture": {
          "index": 4
        },
        "metallicRoughnessTexture": {
          "index": 5
        }
      }
    }
  ],
  "meshes": [
    {
      "name": "Object_0",
      "primitives": [
        {
          "attributes": {
            "NORMAL": 1,
            "POSITION": 0,
            "TANGENT": 2,
            "TEXCOORD_0": 3
          },
          "indices": 4,
          "material": 0,
          "mode": 4
        }
      ]
    },
    {
      "name": "Object_1",
      "primitives": [
        {
          "attributes": {
            "NORMAL": 6,
            "POSITION": 5,
            "TANGENT": 7,
            "TEXCOORD_0": 8
          },
          "indices": 9,
          "material": 1,
          "mode": 4
        }
      ]
    }
  ],
  "nodes": [
    {
      "children": [
        1
      ],
      "matrix": [
        1.0,
        0.0,
        0.0,
        0.0,
        0.0,
        2.220446049250313e-16,
        -1.0,
        0.0,
        0.0,
        1.0,
        2.220446049250313e-16,
        0.0,
        0.0,
        0.0,
        0.0,
        1.0
      ],
      "name": "Sketchfab_model"
    },
    {
      "children": [
        2,
        3
      ],
      "name": "21b51b0edf354b5bb24d80ca045ca7af.obj.cleaner.materialmerger.gles"
    },
    {
      "mesh": 0,
      "name": "Object_2"
    },
    {
      "mesh": 1,
      "name": "Object_3"
    }
  ],
  "samplers": [
    {
      "magFilter": 9729,
      "minFilter": 9987,
      "wrapS": 10497,
      "wrapT": 10497
    }
  ],
  "scene": 0,
  "scenes": [
    {
      "name": "Sketchfab_Scene",
      "nodes": [
        0
      ]
    }
  ],
  "textures": [
    {
      "sampler": 0,
      "source": 0
    },
    {
      "sampler": 0,
      "source": 1
    },
    {
      "sampler": 0,
      "source": 2
    },
    {
      "sampler": 0,
      "source": 3
    },
    {
      "sampler": 0,
      "source": 4
    },
    {
      "sampler": 0,
      "source": 5
    },
    {
      "sampler": 0,
      "source": 6
    }
  ]
}
