{
  "accessors": [
    {
      "bufferView": 1,
      "componentType": 5126,
      "count": 2609,
      "max": [
        0.06077880039811134,
        0.0616791695356369,
        0.18699601292610168
      ],
      "min": [
        -0.09438042342662811,
        -0.05871463939547539,
        0.033309899270534515
      ],
      "type": "VEC3"
    },
    {
      "bufferView": 1,
      "byteOffset": 31308,
      "componentType": 5126,
      "count": 2609,
      "max": [
        0.999043881893158,
        0.9992901086807251,
        0.9992524981498718
      ],
      "min": [
        -0.9994020462036133,
        -0.9993988275527954,
        -0.9999822378158569
      ],
      "type": "VEC3"
    },
    {
      "bufferView": 0,
      "componentType": 5125,
      "count": 14904,
      "type": "SCALAR"
    }
  ],
  "asset": {
    "extras": {
      "author": "Zachary Ferguson (https://sketchfab.com/zfergus)",
      "license": "CC-BY-SA-4.0 (http://creativecommons.org/licenses/by-sa/4.0/)",
      "source": "https://sketchfab.com/3d-models/glass-bunny-caeb681795a54c6eb0bf120582fe7f45",
      "title": "Glass Bunny"
    },
    "generator": "Sketchfab-12.67.0",
    "version": "2.0"
  },
  "bufferViews": [
    {
      "buffer": 0,
      "byteLength": 59616,
      "name": "floatBufferViews",
      "target": 34963
    },
    {
      "buffer": 0,
      "byteLength": 62616,
      "byteOffset": 59616,
      "byteStride": 12,
      "name": "floatBufferViews",
      "target": 34962
    }
  ],
  "buffers": [
    {
      "byteLength": 122232,
      "uri": "scene.bin"
    }
  ],
  "materials": [
    {
      "alphaMode": "BLEND",
      "doubleSided": true,
      "name": "material_0",
      "pbrMetallicRoughness": {
        "baseColorFactor": [
          1.0,
          1.0,
          1.0,
          0.5
        ],
        "roughnessFactor": 0.0
      }
    }
  ],
  "meshes": [
    {
      "name": "Object_0",
      "primitives": [
        {
          "attributes": {
            "NORMAL": 1,
            "POSITION": 0
          },
          "indices": 2,
          "material": 0,
          "mode": 4
        }
      ]
    }
  ],
  "nodes": [
    {
      "children": [
        1
      ],
      "matrix": [
        2.4319372177124023,
        0.0,
        0.0,
        0.0,
        0.0,
        5.399985387094302e-16,
        -2.4319372177124023,
        0.0,
        0.0,
        2.4319372177124023,
        5.399985387094302e-16,
        0.0,
        0.0,
        0.0,
        0.0,
        1.0
      ],
      "name": "Sketchfab_model"
    },
    {
      "children": [
        2
      ],
      "name": "d0a7cb9707594734bcafc81fe1cd3387.obj.cleaner.materialmerger.gles"
    },
    {
      "mesh": 0,
      "name": "Object_2"
    }
  ],
  "scene": 0,
  "scenes": [
    {
      "name": "Sketchfab_Scene",
      "nodes": [
        0
      ]
    }
  ]
}
